<svg xmlns="http://www.w3.org/2000/svg" width="213.012" height="45" viewBox="0 0 213.012 45">
  <g id="logo-seventh-branco" transform="translate(-330.643 -623.132)">
    <path id="Caminho_67" data-name="Caminho 67" d="M127.7,69.025l2.565-27.257L138.5,40.7l-.855,8.551h5.451c6.306,0,9.406.962,9.3,2.779l-1.6,17.1h-8.123l1.6-17c0-.534-.962-.748-2.886-.748h-3.848l-1.71,17.637Z" transform="translate(391.259 588.615)" fill="#fff" fill-rule="evenodd"/>
    <path id="Caminho_68" data-name="Caminho 68" d="M122.516,61.443c-.214,1.817,0,2.993.641,3.634.534.641,1.71.855,3.527.855h1.069l-.321,3.1H116.317c-1.283-1.069-1.817-2.886-1.6-5.558l.962-10.689H111.4l.428-4.062H116.1l.641-7.055,7.7-1.069-.748,8.124h5.344l-.428,4.062h-5.344Z" transform="translate(390.136 588.608)" fill="#fff"/>
    <path id="Caminho_69" data-name="Caminho 69" d="M88.7,68.523,90.41,50.78c3.1-1.817,7.268-2.886,12.72-2.779,5.772,0,8.658.962,8.444,2.779l-1.71,17.743h-7.482l1.71-17.637c.107-.534-.855-.748-2.672-.748H97.892l-1.71,18.385Z" transform="translate(388.572 589.118)" fill="#fff" fill-rule="evenodd"/>
    <path id="Caminho_70" data-name="Caminho 70" d="M53.372,68.523,47.6,48h7.8l3.1,13.147L64.061,48h7.8L62.137,68.523Z" transform="translate(385.741 589.118)" fill="#fff" fill-rule="evenodd"/>
    <path id="Caminho_71" data-name="Caminho 71" d="M81.727,55.383A6.017,6.017,0,0,0,82.8,55.17c.214-.107.321-.321.321-.748.428-4.917-7.055-4.276-7.7,1.5v.321Zm8.124,1.924L75.1,59.445c-.962,5.772,3.955,9.3,10.8,6.841a10.95,10.95,0,0,0,3.1-1.71L88.782,66.5A8.9,8.9,0,0,1,86,68.531H71.359a5.625,5.625,0,0,1-1.5-1.283,9.284,9.284,0,0,1-2.458-7.8,12.241,12.241,0,0,1,4.276-8.337c6.413-5.451,19.24-4.382,18.171,6.2" transform="translate(387.101 589.11)" fill="#fff"/>
    <path id="Caminho_72" data-name="Caminho 72" d="M41.62,55.487a6.015,6.015,0,0,0,1.069-.214c.214-.107.321-.321.321-.748.428-4.917-7.055-4.276-7.589,1.5v.321ZM49.744,57.3,35.1,59.442c-.962,5.772,3.955,9.3,10.689,6.841a12.629,12.629,0,0,0,3.1-1.71L48.675,66.5A9.834,9.834,0,0,1,46,68.527H31.359a5.625,5.625,0,0,1-1.5-1.283,9.284,9.284,0,0,1-2.458-7.8,11.791,11.791,0,0,1,4.276-8.23c6.306-5.558,19.026-4.382,18.064,6.093" transform="translate(384.346 589.113)" fill="#fff"/>
    <path id="Caminho_73" data-name="Caminho 73" d="M27.791,49.982l-3.1.428a5.378,5.378,0,0,0-2.672-4.062,10.344,10.344,0,0,0-9.727-.641c-1.71.855-2.031,2.779-.748,3.741C17,53.723,29.608,53.51,28.432,61.526,27.9,65.053,25.653,67.4,22.66,68.9H4.7c-.534-.214-1.069-.428-1.5-.641h0A18.355,18.355,0,0,1,0,66.229c1.176-1.6,2.352-3.207,3.42-4.917h.214c.962,3.848,5.131,6.841,10.475,6.841,4.276,0,8.872-3.848,5.131-6.306-5.558-3.634-17.1-4.169-15.926-11.437A7.648,7.648,0,0,1,7.8,44.531,19.025,19.025,0,0,1,16.354,42.5c5.986,0,11.865,2.245,11.437,7.482" transform="translate(382.462 588.739)" fill="#fff"/>
    <g id="Grupo_5" data-name="Grupo 5" transform="translate(330.642 623.131)">
      <path id="Caminho_49" data-name="Caminho 49" d="M105.21,18.348l-6.52,1.283L94.2,14.607l1.283-.107,3.42,3.741h.107l5.238-.855Z" transform="translate(-76.35 0.999)" fill="#fff"/>
      <path id="Caminho_50" data-name="Caminho 50" d="M93.914,14.9,98.4,19.924l-2.352,6.2-.534-.748h0l1.817-5.558h-.107V19.71L93.7,15.755Z" transform="translate(-76.384 1.026)" fill="#fff"/>
      <path id="Caminho_51" data-name="Caminho 51" d="M105.172,18.6l-.428.855L99.4,20.524h0v.107h0l-1.924,5.131-1.176.321,2.352-6.306Z" transform="translate(-76.205 1.281)" fill="#fff"/>
      <path id="Caminho_52" data-name="Caminho 52" d="M101.344,24.9l-2.031,5.238h0v.107L96,30.993l1.924-5.238h0Z" transform="translate(-76.226 1.715)" fill="#fff"/>
      <path id="Caminho_53" data-name="Caminho 53" d="M110.127,18.7l-1.283,2.779L103.5,22.655l1.069-2.779Z" transform="translate(-75.709 1.288)" fill="#fff"/>
      <path id="Caminho_54" data-name="Caminho 54" d="M123.353,18.8,113.305,36.437,94.6,43.7l5.131-12.72h.107l6.627-1.5h0v-.107h0l3.314-7.482h0Z" transform="translate(-76.322 1.295)" fill="#fff"/>
      <path id="Caminho_55" data-name="Caminho 55" d="M108.892,21.8l-3.1,7.055L99.7,30.244l2.565-6.948Z" transform="translate(-75.971 1.502)" fill="#fff"/>
      <path id="Caminho_56" data-name="Caminho 56" d="M104.52,19.9l-1.176,2.886L102.169,23h-.107v.107h0l-.641,1.6L98,25.565l1.6-4.7Z" transform="translate(-76.088 1.371)" fill="#fff"/>
      <path id="Caminho_57" data-name="Caminho 57" d="M93.548,16.2l3.314,3.634-1.6,5.024-2.031-2.672h-.107l.641-1.817h0v-.107h0L92.8,19.193v-.107Z" transform="translate(-76.446 1.116)" fill="#fff"/>
      <path id="Caminho_58" data-name="Caminho 58" d="M93.11,22.3l2.031,2.672h0l-1.71,5.558L91.4,27.858h0Z" transform="translate(-76.543 1.536)" fill="#fff"/>
      <path id="Caminho_59" data-name="Caminho 59" d="M91.823,29.036v.107l-3.955,12.72L77.5,25.081,80.707,5.2l8.444,10.048-1.817,7.7h0v.107h0Z" transform="translate(-77.5 0.358)" fill="#fff"/>
      <path id="Caminho_60" data-name="Caminho 60" d="M92.865,19.6l.748.855-.428,1.39v.107h-.107v.321h-.107v.107h0v.107l-1.6,5.344L87.2,22.268,88.91,15l3.955,4.6Z" transform="translate(-76.832 1.033)" fill="#fff"/>
      <path id="Caminho_61" data-name="Caminho 61" d="M89.648,11.7,93.5,16.082l-.855,2.993L88.9,14.693Z" transform="translate(-76.715 0.806)" fill="#fff"/>
      <path id="Caminho_62" data-name="Caminho 62" d="M101.351,14.534l2.352,2.458-4.7.855-3.1-3.42L99.748,14l.641.641h.107Z" transform="translate(-76.233 0.964)" fill="#fff"/>
      <path id="Caminho_63" data-name="Caminho 63" d="M109.724,15.938l-5.879.962L101.6,14.548l5.665-.748Z" transform="translate(-75.84 0.951)" fill="#fff"/>
      <path id="Caminho_64" data-name="Caminho 64" d="M122.087,12.185l-13.575,2.031-5.451-5.131h-.107l-6.948.748L86.6.107,106.588,0Z" transform="translate(-76.873)" fill="#fff"/>
      <path id="Caminho_65" data-name="Caminho 65" d="M107.237,13.71l-6.627.855L95.8,9.648l6.413-.748Z" transform="translate(-76.239 0.613)" fill="#fff"/>
      <path id="Caminho_66" data-name="Caminho 66" d="M95.434,9.6,99.6,13.876l-3.848.428L91.8,9.921Z" transform="translate(-76.515 0.661)" fill="#fff"/>
    </g>
  </g>
</svg>
